<svg xmlns="http://www.w3.org/2000/svg" xmlns:xlink="http://www.w3.org/1999/xlink" xmlns:serif="http://www.serif.com/" width="100%" height="100%" viewBox="0 0 188 85" xml:space="preserve" style="fill-rule:evenodd;clip-rule:evenodd;stroke-linejoin:round;stroke-miterlimit:2;">    <g transform="matrix(-1,0,0,1,156.607,-149.622)">        <rect x="128.451" y="149.622" width="28.156" height="43.994" style="fill:rgb(15,174,237);"></rect>    </g>    <g transform="matrix(-1,0,0,1,212.921,-81.576)">        <rect x="156.608" y="125.571" width="28.156" height="24.05" style="fill:rgb(255,225,38);"></rect>    </g>    <g transform="matrix(-1,0,0,1,181.831,-41.395)">        <rect x="141.063" y="109.44" width="28.156" height="16.131" style="fill:rgb(255,50,80);"></rect>    </g>    <g transform="matrix(1,0,0,1,-128.451,-300.518)">        <g transform="matrix(27.5473,0,0,27.5473,165.177,337.039)">            <path d="M0.318,0.016C0.259,0.016 0.203,0.009 0.148,-0.004C0.093,-0.017 0.048,-0.035 0.013,-0.056L0.089,-0.228C0.122,-0.209 0.16,-0.193 0.201,-0.182C0.242,-0.17 0.281,-0.164 0.32,-0.164C0.343,-0.164 0.361,-0.166 0.374,-0.169C0.387,-0.172 0.396,-0.176 0.402,-0.182C0.408,-0.187 0.411,-0.194 0.411,-0.202C0.411,-0.215 0.404,-0.225 0.39,-0.232C0.376,-0.239 0.358,-0.246 0.335,-0.251C0.312,-0.256 0.286,-0.261 0.259,-0.267C0.232,-0.272 0.204,-0.28 0.177,-0.289C0.149,-0.298 0.124,-0.311 0.101,-0.326C0.078,-0.341 0.059,-0.362 0.045,-0.387C0.031,-0.411 0.024,-0.443 0.024,-0.48C0.024,-0.523 0.036,-0.563 0.061,-0.599C0.085,-0.634 0.121,-0.663 0.17,-0.684C0.218,-0.705 0.278,-0.716 0.35,-0.716C0.397,-0.716 0.444,-0.711 0.49,-0.701C0.536,-0.691 0.577,-0.676 0.614,-0.655L0.543,-0.484C0.508,-0.501 0.475,-0.514 0.443,-0.523C0.41,-0.532 0.379,-0.536 0.348,-0.536C0.325,-0.536 0.307,-0.534 0.294,-0.53C0.281,-0.526 0.271,-0.521 0.266,-0.514C0.26,-0.507 0.257,-0.5 0.257,-0.492C0.257,-0.48 0.264,-0.47 0.278,-0.464C0.292,-0.457 0.311,-0.451 0.334,-0.446C0.357,-0.441 0.382,-0.436 0.409,-0.431C0.437,-0.426 0.465,-0.418 0.492,-0.409C0.519,-0.4 0.545,-0.387 0.568,-0.372C0.591,-0.357 0.609,-0.337 0.623,-0.312C0.637,-0.287 0.644,-0.257 0.644,-0.22C0.644,-0.177 0.632,-0.138 0.608,-0.102C0.583,-0.067 0.547,-0.038 0.499,-0.017C0.451,0.005 0.391,0.016 0.318,0.016Z" style="fill:rgb(43,43,43);fill-rule:nonzero;"></path>        </g>        <g transform="matrix(27.5473,0,0,27.5473,183.276,337.039)">            <path d="M0.057,-0L0.057,-0.7L0.251,-0.7L0.531,-0.243L0.429,-0.243L0.701,-0.7L0.895,-0.7L0.897,-0L0.682,-0L0.68,-0.376L0.714,-0.376L0.528,-0.063L0.424,-0.063L0.23,-0.376L0.272,-0.376L0.272,-0L0.057,-0Z" style="fill:rgb(43,43,43);fill-rule:nonzero;"></path>        </g>        <g transform="matrix(27.5473,0,0,27.5473,209.556,337.039)">            <path d="M-0.019,-0L0.287,-0.7L0.519,-0.7L0.825,-0L0.581,-0L0.355,-0.588L0.447,-0.588L0.221,-0L-0.019,-0ZM0.163,-0.122L0.223,-0.292L0.545,-0.292L0.605,-0.122L0.163,-0.122Z" style="fill:rgb(43,43,43);fill-rule:nonzero;"></path>        </g>        <g transform="matrix(27.5473,0,0,27.5473,231.759,337.039)">            <path d="M0.057,-0L0.057,-0.7L0.394,-0.7C0.459,-0.7 0.516,-0.689 0.564,-0.668C0.611,-0.647 0.648,-0.616 0.674,-0.577C0.7,-0.537 0.713,-0.49 0.713,-0.436C0.713,-0.382 0.7,-0.336 0.674,-0.297C0.648,-0.258 0.611,-0.228 0.564,-0.207C0.516,-0.186 0.459,-0.176 0.394,-0.176L0.188,-0.176L0.293,-0.273L0.293,-0L0.057,-0ZM0.476,-0L0.304,-0.255L0.554,-0.255L0.728,-0L0.476,-0ZM0.293,-0.247L0.188,-0.354L0.379,-0.354C0.412,-0.354 0.436,-0.361 0.452,-0.376C0.467,-0.391 0.475,-0.411 0.475,-0.436C0.475,-0.461 0.467,-0.481 0.452,-0.496C0.436,-0.511 0.412,-0.518 0.379,-0.518L0.188,-0.518L0.293,-0.625L0.293,-0.247Z" style="fill:rgb(43,43,43);fill-rule:nonzero;"></path>        </g>        <g transform="matrix(27.5473,0,0,27.5473,252.006,337.039)">            <path d="M0.209,-0L0.209,-0.517L0.004,-0.517L0.004,-0.7L0.65,-0.7L0.65,-0.517L0.445,-0.517L0.445,-0L0.209,-0Z" style="fill:rgb(43,43,43);fill-rule:nonzero;"></path>        </g>        <g transform="matrix(23.3697,0,0,23.3697,195.692,369.689)">            <path d="M0.105,-0L0.105,-0.7L0.187,-0.7L0.501,-0.171L0.457,-0.171L0.767,-0.7L0.849,-0.7L0.85,-0L0.754,-0L0.753,-0.549L0.776,-0.549L0.5,-0.085L0.454,-0.085L0.176,-0.549L0.201,-0.549L0.201,-0L0.105,-0Z" style="fill:rgb(43,43,43);fill-rule:nonzero;"></path>        </g>        <g transform="matrix(23.3697,0,0,23.3697,218.01,369.689)">            <path d="M0.42,-0L0.42,-0.112L0.415,-0.133L0.415,-0.324C0.415,-0.365 0.403,-0.396 0.38,-0.419C0.356,-0.441 0.32,-0.452 0.273,-0.452C0.242,-0.452 0.211,-0.447 0.181,-0.437C0.151,-0.426 0.126,-0.412 0.105,-0.395L0.065,-0.467C0.092,-0.489 0.125,-0.506 0.164,-0.518C0.202,-0.529 0.242,-0.535 0.284,-0.535C0.357,-0.535 0.413,-0.517 0.452,-0.482C0.491,-0.447 0.511,-0.393 0.511,-0.32L0.511,-0L0.42,-0ZM0.246,0.006C0.207,0.006 0.172,-0.001 0.142,-0.014C0.113,-0.027 0.09,-0.046 0.074,-0.07C0.058,-0.093 0.05,-0.12 0.05,-0.15C0.05,-0.179 0.057,-0.205 0.07,-0.228C0.084,-0.251 0.107,-0.27 0.138,-0.284C0.169,-0.298 0.21,-0.305 0.263,-0.305L0.431,-0.305L0.431,-0.236L0.267,-0.236C0.219,-0.236 0.187,-0.228 0.17,-0.212C0.153,-0.196 0.145,-0.177 0.145,-0.154C0.145,-0.128 0.155,-0.107 0.176,-0.092C0.197,-0.076 0.225,-0.068 0.262,-0.068C0.298,-0.068 0.33,-0.076 0.357,-0.092C0.384,-0.108 0.403,-0.131 0.415,-0.162L0.434,-0.096C0.421,-0.065 0.399,-0.04 0.367,-0.021C0.335,-0.003 0.295,0.006 0.246,0.006Z" style="fill:rgb(43,43,43);fill-rule:nonzero;"></path>        </g>        <g transform="matrix(23.3697,0,0,23.3697,231.986,369.689)">            <path d="M0.091,-0L0.091,-0.53L0.183,-0.53L0.183,-0.386L0.174,-0.422C0.189,-0.459 0.213,-0.487 0.248,-0.506C0.283,-0.525 0.325,-0.535 0.376,-0.535L0.376,-0.442C0.372,-0.443 0.368,-0.443 0.365,-0.443L0.354,-0.443C0.303,-0.443 0.262,-0.428 0.232,-0.397C0.202,-0.366 0.187,-0.322 0.187,-0.264L0.187,-0L0.091,-0Z" style="fill:rgb(43,43,43);fill-rule:nonzero;"></path>        </g>        <g transform="matrix(23.3697,0,0,23.3697,241.404,369.689)">            <path d="M0.169,-0.128L0.171,-0.251L0.476,-0.53L0.592,-0.53L0.358,-0.3L0.306,-0.256L0.169,-0.128ZM0.091,-0L0.091,-0.742L0.187,-0.742L0.187,-0L0.091,-0ZM0.496,-0L0.288,-0.258L0.35,-0.335L0.614,-0L0.496,-0Z" style="fill:rgb(43,43,43);fill-rule:nonzero;"></path>        </g>        <g transform="matrix(23.3697,0,0,23.3697,255.285,369.689)">            <path d="M0.327,0.006C0.27,0.006 0.221,-0.006 0.178,-0.029C0.135,-0.052 0.101,-0.084 0.078,-0.125C0.054,-0.166 0.042,-0.212 0.042,-0.265C0.042,-0.318 0.054,-0.364 0.077,-0.405C0.1,-0.446 0.131,-0.477 0.172,-0.5C0.212,-0.524 0.257,-0.535 0.308,-0.535C0.359,-0.535 0.405,-0.524 0.444,-0.501C0.483,-0.478 0.514,-0.447 0.537,-0.406C0.559,-0.365 0.57,-0.317 0.57,-0.262C0.57,-0.258 0.57,-0.253 0.57,-0.248C0.569,-0.243 0.569,-0.238 0.568,-0.233L0.117,-0.233L0.117,-0.302L0.518,-0.302L0.479,-0.278C0.48,-0.312 0.473,-0.342 0.458,-0.369C0.443,-0.396 0.423,-0.417 0.398,-0.432C0.372,-0.447 0.342,-0.454 0.308,-0.454C0.275,-0.454 0.245,-0.447 0.219,-0.432C0.193,-0.417 0.173,-0.396 0.158,-0.369C0.143,-0.342 0.136,-0.311 0.136,-0.276L0.136,-0.26C0.136,-0.225 0.144,-0.193 0.161,-0.166C0.177,-0.138 0.2,-0.116 0.229,-0.101C0.258,-0.086 0.292,-0.078 0.33,-0.078C0.361,-0.078 0.39,-0.083 0.416,-0.094C0.441,-0.105 0.464,-0.121 0.483,-0.142L0.536,-0.08C0.512,-0.052 0.482,-0.031 0.447,-0.016C0.411,-0.001 0.371,0.006 0.327,0.006Z" style="fill:rgb(43,43,43);fill-rule:nonzero;"></path>        </g>        <g transform="matrix(23.3697,0,0,23.3697,269.587,369.689)">            <path d="M0.273,0.006C0.22,0.006 0.178,-0.008 0.149,-0.037C0.12,-0.066 0.105,-0.107 0.105,-0.16L0.105,-0.646L0.201,-0.646L0.201,-0.164C0.201,-0.135 0.208,-0.113 0.223,-0.098C0.237,-0.083 0.257,-0.075 0.284,-0.075C0.314,-0.075 0.339,-0.083 0.359,-0.1L0.389,-0.031C0.374,-0.018 0.357,-0.009 0.337,-0.003C0.316,0.003 0.295,0.006 0.273,0.006ZM0.015,-0.451L0.015,-0.53L0.353,-0.53L0.353,-0.451L0.015,-0.451Z" style="fill:rgb(43,43,43);fill-rule:nonzero;"></path>        </g>        <g transform="matrix(23.3697,0,0,23.3697,279.262,369.689)">            <path d="M0.091,-0L0.091,-0.53L0.187,-0.53L0.187,-0L0.091,-0ZM0.139,-0.632C0.12,-0.632 0.105,-0.638 0.093,-0.65C0.08,-0.662 0.074,-0.677 0.074,-0.694C0.074,-0.712 0.08,-0.727 0.093,-0.739C0.105,-0.751 0.12,-0.757 0.139,-0.757C0.158,-0.757 0.173,-0.751 0.186,-0.74C0.198,-0.728 0.204,-0.713 0.204,-0.696C0.204,-0.678 0.198,-0.663 0.186,-0.651C0.174,-0.638 0.158,-0.632 0.139,-0.632Z" style="fill:rgb(43,43,43);fill-rule:nonzero;"></path>        </g>        <g transform="matrix(23.3697,0,0,23.3697,285.783,369.689)">            <path d="M0.374,-0.535C0.417,-0.535 0.456,-0.527 0.489,-0.51C0.522,-0.493 0.547,-0.468 0.566,-0.434C0.585,-0.4 0.594,-0.357 0.594,-0.305L0.594,-0L0.498,-0L0.498,-0.294C0.498,-0.345 0.486,-0.384 0.461,-0.41C0.436,-0.436 0.4,-0.449 0.355,-0.449C0.321,-0.449 0.291,-0.442 0.266,-0.429C0.241,-0.416 0.221,-0.396 0.207,-0.37C0.194,-0.344 0.187,-0.312 0.187,-0.273L0.187,-0L0.091,-0L0.091,-0.53L0.183,-0.53L0.183,-0.387L0.168,-0.425C0.185,-0.46 0.212,-0.487 0.248,-0.506C0.284,-0.525 0.326,-0.535 0.374,-0.535Z" style="fill:rgb(43,43,43);fill-rule:nonzero;"></path>        </g>        <g transform="matrix(23.3697,0,0,23.3697,301.697,369.689)">            <path d="M0.323,0.2C0.274,0.2 0.227,0.193 0.182,0.179C0.136,0.166 0.099,0.146 0.07,0.121L0.116,0.047C0.141,0.068 0.171,0.085 0.207,0.097C0.243,0.11 0.281,0.116 0.32,0.116C0.383,0.116 0.429,0.101 0.458,0.072C0.487,0.043 0.502,-0.002 0.502,-0.062L0.502,-0.174L0.512,-0.279L0.507,-0.385L0.507,-0.53L0.598,-0.53L0.598,-0.072C0.598,0.021 0.575,0.09 0.528,0.134C0.481,0.178 0.413,0.2 0.323,0.2ZM0.311,-0.022C0.26,-0.022 0.214,-0.033 0.173,-0.055C0.133,-0.076 0.101,-0.106 0.078,-0.145C0.054,-0.184 0.042,-0.228 0.042,-0.279C0.042,-0.33 0.054,-0.375 0.078,-0.413C0.101,-0.452 0.133,-0.482 0.173,-0.503C0.214,-0.524 0.26,-0.535 0.311,-0.535C0.356,-0.535 0.398,-0.526 0.435,-0.507C0.472,-0.489 0.502,-0.461 0.525,-0.423C0.547,-0.385 0.558,-0.337 0.558,-0.279C0.558,-0.222 0.547,-0.174 0.525,-0.136C0.502,-0.098 0.472,-0.07 0.435,-0.051C0.398,-0.032 0.356,-0.022 0.311,-0.022ZM0.322,-0.106C0.357,-0.106 0.389,-0.113 0.416,-0.128C0.443,-0.143 0.465,-0.163 0.481,-0.189C0.496,-0.215 0.504,-0.245 0.504,-0.279C0.504,-0.313 0.496,-0.343 0.481,-0.369C0.465,-0.395 0.443,-0.415 0.416,-0.43C0.389,-0.444 0.357,-0.451 0.322,-0.451C0.287,-0.451 0.255,-0.444 0.228,-0.43C0.2,-0.415 0.178,-0.395 0.163,-0.369C0.147,-0.343 0.139,-0.313 0.139,-0.279C0.139,-0.245 0.147,-0.215 0.163,-0.189C0.178,-0.163 0.2,-0.143 0.228,-0.128C0.255,-0.113 0.287,-0.106 0.322,-0.106Z" style="fill:rgb(43,43,43);fill-rule:nonzero;"></path>        </g>    </g></svg>